<?xml version="1.0" encoding="UTF-8" standalone="no"?>
<svg
   version="1.1"
   width="1024"
   height="1024"
   id="svg48"
   sodipodi:docname="sneaky-santa.svg"
   inkscape:version="1.4 (e7c3feb1, 2024-10-09)"
   xmlns:inkscape="http://www.inkscape.org/namespaces/inkscape"
   xmlns:sodipodi="http://sodipodi.sourceforge.net/DTD/sodipodi-0.dtd"
   xmlns="http://www.w3.org/2000/svg"
   xmlns:svg="http://www.w3.org/2000/svg">
  <defs
     id="defs48" />
  <sodipodi:namedview
     id="namedview48"
     pagecolor="#ffffff"
     bordercolor="#000000"
     borderopacity="0.25"
     inkscape:showpageshadow="2"
     inkscape:pageopacity="0.0"
     inkscape:pagecheckerboard="0"
     inkscape:deskcolor="#d1d1d1"
     inkscape:zoom="0.36488938"
     inkscape:cx="626.21718"
     inkscape:cy="404.2321"
     inkscape:window-width="1200"
     inkscape:window-height="1186"
     inkscape:window-x="0"
     inkscape:window-y="25"
     inkscape:window-maximized="0"
     inkscape:current-layer="svg48" />
  <path
     d="m 620.47631,4.0845273 c 1.84592,0.2195962 3.69849,0.4016908 5.55568,0.5136793 6.50652,0.6026152 12.36912,2.3298343 18.57186,4.1828171 2.36947,0.6583808 2.36947,0.6583808 4.78682,1.3300623 12.59105,3.503297 24.73791,7.52292 36.48398,13.052958 3.41018,1.576527 5.9001,2.494041 9.52403,3.228841 0,0.774921 0,1.549844 0,2.348249 1.59602,0.425298 3.19203,0.850598 4.83642,1.288783 7.50679,2.322634 13.9431,5.943228 20.64036,9.792012 1.27897,0.729233 2.55792,1.458465 3.87565,2.209796 19.67486,11.364013 36.83931,24.351158 53.18917,39.544993 0.94288,0.847571 1.88576,1.695141 2.85721,2.568396 8.04511,7.607578 15.45362,15.337114 21.89535,24.170446 0.63186,0.86271 1.26372,1.72541 1.91472,2.61426 0.6155,0.85362 1.23098,1.70726 1.86512,2.58674 2.5878,2.80774 5.55391,3.40998 9.24625,4.57725 8.92631,3.29558 16.52903,8.96761 21.90527,16.3185 0.69734,0.94746 1.39468,1.89492 2.11315,2.87109 2.96454,7.29335 1.84057,14.9195 1.54766,22.61107 -0.18315,7.84602 0.68932,13.10388 3.95842,20.30867 1.54693,11.51964 -0.0116,21.33749 -7.12815,30.9446 -5.48118,6.34894 -5.48118,6.34894 -10.93775,7.46669 -1.16223,0.11048 -2.32446,0.22097 -3.5219,0.3348 0.72112,22.82068 0.72112,22.82068 10.15896,43.4426 0,0.77492 0,1.54984 0,2.34825 1.44051,-0.5812 2.88102,-1.16239 4.36518,-1.76119 7.47577,-2.55687 13.93778,-3.04615 21.34971,-0.14676 7.63604,6.73937 10.25194,13.78449 10.71453,23.48248 -0.31209,8.89108 -3.15372,15.69218 -8.49226,23.04218 -0.73826,0.61146 -1.47653,1.22293 -2.23715,1.85292 -0.51892,0.55092 -1.03783,1.10184 -1.57247,1.66946 0.30947,3.83567 2.29477,6.33331 4.68266,9.39299 13.23996,18.08365 17.31685,35.19289 17.46072,56.72487 0.0129,1.37124 0.0258,2.7425 0.039,4.15529 -0.0993,9.13726 -1.59533,17.25811 -4.40424,26.00502 -0.60158,2.00239 -0.60158,2.00239 -1.21531,4.04523 -2.44363,7.07737 -5.49504,13.13005 -9.87125,19.36845 -1.80159,2.49477 -1.80159,2.49477 -2.88202,5.93942 0.73827,0.30574 1.47653,0.61147 2.23716,0.92646 3.92823,1.96498 6.84461,4.65822 10.08952,7.4667 7.72464,5.76731 13.39282,7.58097 23.15033,7.75105 1.4843,0.0522 1.4843,0.0522 2.99859,0.10551 2.41257,0.0821 4.82616,0.13784 7.23975,0.18804 0.0475,-0.75222 0.0949,-1.50444 0.14385,-2.27945 0.85376,-10.38587 3.90808,-18.86269 12.55486,-25.89952 5.9451,-3.4563 10.63578,-3.8292 17.46072,-3.44899 6.21409,0.19349 11.34699,0.0693 17.06389,-2.42164 8.35698,-3.63617 17.19806,-3.62291 26.09187,-1.53187 16.86196,5.76174 28.28417,16.38245 35.85897,31.38031 6.8593,15.91561 10.5058,37.95878 3.889,54.49128 -5.4163,10.48829 -12.5957,18.15376 -24.56904,22.28543 -4.43195,1.28406 -8.08263,1.35175 -12.69871,1.24751 -6.0096,0.36372 -8.78201,2.1942 -12.85496,6.25988 -1.93755,2.06462 -3.85578,4.14308 -5.7665,6.22894 -10.50357,11.4612 -24.11147,19.14052 -38.12589,26.40403 -0.9085,0.49341 -1.81701,0.98682 -2.75303,1.49518 -5.5577,2.8359 -11.53919,4.56813 -17.56489,6.35678 -1.26685,0.37857 -1.26685,0.37857 -2.55928,0.76479 -17.71338,5.03684 -41.03521,5.91705 -58.39452,-0.39788 0.0589,0.84606 0.11785,1.69212 0.17857,2.56382 1.26815,34.88301 -10.56411,71.40971 -28.11574,101.93323 -0.65804,1.15813 -0.65804,1.15813 -1.32939,2.33965 -11.06923,19.35699 -24.79723,36.56363 -40.57633,52.84418 -1.21541,1.26883 -2.43072,2.53774 -3.64592,3.80673 -8.42,8.71858 -8.42,8.71858 -12.86241,11.45689 0.77684,4.26103 2.68979,6.68438 5.55569,10.05343 10.5844,13.13664 19.29087,27.71311 26.19108,42.78215 1.10924,2.17785 2.22041,4.35485 3.33341,6.53107 2.49036,5.0513 4.35751,10.07116 5.96244,15.41496 0.90287,3.01187 0.90287,3.01187 2.76793,6.96677 2.89233,6.90268 3.9222,14.35245 5.28161,21.61868 0.62288,3.31605 1.28308,6.62563 1.94077,9.93591 0.34453,1.76109 0.68872,3.52223 1.03178,5.28356 5.06163,0 7.19978,-1.78703 11.42883,-4.32958 20.0918,-11.65927 46.25606,-20.69669 70.32901,-16.24511 7.37902,2.15316 13.68558,6.626 17.84764,12.64935 2.68165,12.12179 -0.96262,21.22272 -8.17479,31.40782 -3.76071,4.76181 -7.94813,9.16423 -12.24421,13.51561 -1.62159,1.64381 -3.21426,3.31189 -4.8048,4.98143 -2.74464,2.8708 -5.53065,5.69836 -8.3484,8.50781 -0.77265,0.77795 -1.54529,1.5559 -2.34134,2.35742 -7.11409,6.8843 -15.18109,12.56992 -23.33882,18.34053 -2.09532,1.49505 -4.16405,3.01549 -6.22535,4.55031 -8.14354,5.98327 -16.54498,11.34685 -25.31805,16.50653 -1.04386,0.61666 -2.08771,1.23333 -3.1632,1.86868 -0.9876,0.57145 -1.97518,1.1429 -2.9927,1.73166 -0.87914,0.5094 -1.75828,1.01879 -2.66406,1.54362 -2.53623,1.24364 -4.80468,1.89153 -7.60899,2.41446 0,0.77493 0,1.54984 0,2.34825 0.83156,-0.0111 1.66314,-0.0221 2.51989,-0.0335 8.94618,-0.0665 17.77192,0.32362 26.68714,0.98751 1.42148,0.10551 2.84295,0.21094 4.30752,0.31962 21.64788,1.65705 43.18962,3.47148 64.50359,7.45895 1.2361,0.22674 2.4722,0.45349 3.74575,0.68711 7.39921,1.47217 13.61601,3.43298 20.1437,7.01808 1.26987,3.22884 1.26987,3.22884 1.26987,5.87063 -5.63168,3.8769 -10.73656,5.79749 -17.61946,7.1915 -1.27436,0.2747 -1.27436,0.2747 -2.57446,0.555 -1.61357,0.3478 -3.22861,0.6898 -4.84572,1.0233 -2.45259,0.5275 -4.88476,1.1351 -7.31044,1.76 -7.09837,1.642 -14.31341,2.2197 -21.57974,2.8992 -1.51586,0.1475 -3.03172,0.295 -4.59351,0.4469 -4.83073,0.4689 -9.6624,0.9287 -14.49423,1.3877 -6.33645,0.6087 -12.67245,1.2214 -19.00838,1.8346 -2.28829,0.2198 -2.28829,0.2198 -4.6228,0.444 -7.90723,0.7655 -15.79563,1.5953 -23.67647,2.5647 -10.0065,1.1914 -20.00679,1.7399 -30.0751,2.2014 -1.97056,0.095 -3.9411,0.1905 -5.9116,0.2864 -5.2308,0.2525 -10.46207,0.4958 -15.69349,0.7372 -3.2561,0.1515 -6.51197,0.3066 -9.76779,0.463 -28.71352,1.3785 -57.42293,2.614 -86.16953,3.2099 -1.21464,0.026 -2.42928,0.052 -3.68072,0.078 -79.56439,1.6665 -159.16552,1.5324 -238.74059,0.6193 -3.18015,-0.036 -6.3603,-0.071 -9.54047,-0.1064 -4.98285,-0.056 -9.96558,-0.1171 -14.94828,-0.1832 -1.7983,-0.023 -3.59663,-0.045 -5.39499,-0.066 -10.40383,-0.1214 -20.75908,-0.4841 -31.14079,-1.0857 -7.2744,-0.4207 -14.53925,-0.6785 -21.82462,-0.8519 -52.6081,-1.4348 -105.12948,-4.6847 -157.3598,-10.8056 -0.95257,-0.1102 -1.90514,-0.2203 -2.88658,-0.3338 -10.5966,-1.2461 -21.07252,-2.8755 -31.53882,-4.8535 -1.00207,-0.1857 -2.00414,-0.3714 -3.03658,-0.5628 -7.59064,-1.4899 -14.26581,-3.84724 -20.87271,-7.67895 -0.47619,-2.64178 -0.47619,-2.64178 0,-5.87062 5.7585,-4.7557 12.11306,-6.1207 19.52427,-7.63181 1.7329,-0.36622 1.7329,-0.36622 3.50082,-0.73985 25.44882,-5.23133 51.31528,-8.85939 77.36688,-9.86376 7.13927,-0.3134 14.18414,-0.94774 21.27923,-1.73433 23.88088,-2.61899 47.80807,-3.66693 71.81901,-4.68915 4.40193,-0.19042 8.80317,-0.39282 13.20447,-0.59509 58.35015,-2.67164 116.66263,-3.1205 175.07226,-3.07594 6.46038,0.004 12.92071,0.003 19.38108,-0.002 36.1677,-0.0269 72.32986,-0.01 108.4918,0.67593 1.84339,0.0341 1.84339,0.0341 3.72402,0.069 57.77582,1.10759 57.77582,1.10759 83.47542,4.10458 -4.35338,-12.38504 -9.92175,-23.73329 -16.50832,-35.22373 -0.63698,-1.11376 -1.27396,-2.22752 -1.93023,-3.37503 -2.12345,-3.69932 -4.26027,-7.39172 -6.40329,-11.08137 -0.67279,-1.1622 -1.34558,-2.32439 -2.03875,-3.5218 -21.5425,-36.75182 -50.03667,-69.49746 -86.88693,-93.88464 -3.06059,-2.0272 -3.06059,-2.0272 -5.06492,-3.88269 -4.73199,-2.56495 -9.3113,-2.18447 -14.70241,-2.18515 -1.14049,-0.0155 -2.28097,-0.0311 -3.45603,-0.047 -3.64972,-0.048 -7.29905,-0.0734 -10.94907,-0.0952 -29.738,-0.23154 -29.738,-0.23154 -42.54067,-2.86193 -4.61029,-1.17566 -4.61029,-1.17566 -8.88909,0 -4.24136,3.59421 -7.80586,7.61939 -11.42884,11.74125 -32.52794,31.61771 -77.2327,60.7579 -125.93547,62.50835 -40.07308,0.73572 -74.61415,-11.54726 -110.26049,-27.28462 -0.47143,1.45297 -0.94288,2.90594 -1.4286,4.40296 -9.0938,24.83695 -27.80902,46.96699 -53.17584,58.99973 -7.34235,2.25443 -15.92521,2.31247 -23.09577,-0.44029 -10.35109,-5.44402 -15.51045,-16.99531 -18.8794,-27.03237 -1.79874,-6.81652 -1.6335,-13.68684 -1.59727,-20.66643 0.009,-2.11902 0.009,-2.11902 0.0189,-4.28085 0.24244,-17.08061 4.36368,-32.53411 9.82257,-48.75252 0.92435,-2.78281 1.76572,-5.58598 2.61911,-8.38799 3.49477,-10.66858 8.70992,-20.64125 14.17692,-30.54558 1.29654,-2.39756 2.47624,-4.84943 3.60128,-7.31992 5.99503,-12.70276 13.63218,-25.47405 27.30222,-32.21503 11.19987,-3.45181 22.67977,-1.02615 33.01664,3.52237 3.99447,2.14153 7.72875,4.49434 11.42884,7.04475 1.28336,0.87178 2.56672,1.74357 3.88897,2.64177 0.81193,0.67806 1.62385,1.35611 2.46038,2.05472 0,0.77492 0,1.54984 0,2.34824 5.60843,0.1037 11.21657,0.16537 16.82578,0.22015 1.5682,0.0295 3.13638,0.059 4.7521,0.0894 13.60039,0.0992 28.81438,-0.80025 39.37591,-9.70257 3.30068,-3.73479 6.15131,-7.6398 8.88909,-11.74125 0.73827,-0.99286 1.47653,-1.98574 2.23717,-3.00869 1.76482,-2.66432 1.76482,-2.66432 1.54269,-5.1322 -1.8257,-3.5719 -4.43939,-6.49555 -7.11327,-9.54435 -9.99917,-11.76112 -17.3697,-23.58592 -23.33387,-37.49859 -0.39123,-0.89751 -0.78245,-1.79504 -1.18555,-2.71975 -0.9299,-2.20518 -1.77841,-4.43925 -2.62406,-6.67324 -0.30939,-0.78854 -0.61876,-1.57708 -0.93752,-2.38953 -6.03504,-16.68277 -7.33433,-34.16585 -6.68171,-51.62018 -0.95597,-0.15589 -1.91194,-0.31178 -2.89688,-0.4724 -3.45246,-0.70172 -3.45246,-0.70172 -7.89702,-2.5363 -4.10707,-1.55964 -6.44988,-2.16032 -10.7939,-1.68779 -0.41905,0.38746 -0.83811,0.77491 -1.26987,1.17412 -2.17835,0.41847 -4.37103,0.77362 -6.56761,1.10074 -1.34229,0.20281 -2.68459,0.40562 -4.06756,0.61458 -1.41431,0.20887 -2.82863,0.41773 -4.28581,0.63293 -2.77136,0.41504 -5.5426,0.83084 -8.31368,1.2475 -1.85323,0.2747 -1.85323,0.2747 -3.7439,0.55496 -2.12566,0.33163 -4.24426,0.71412 -6.3385,1.18674 -5.35537,0.81367 -10.68496,0.74861 -16.10373,0.77166 -1.23337,0.006 -2.46673,0.0134 -3.73747,0.0203 -2.61617,0.0111 -5.23236,0.0187 -7.84855,0.0233 -3.92375,0.0113 -7.84662,0.0476 -11.77017,0.0849 -20.3896,0.102 -39.45092,-1.93747 -59.13084,-7.04473 -1.15834,-0.29846 -2.31669,-0.59691 -3.51013,-0.90439 -31.34864,-8.35539 -60.075894,-22.1569 -83.986937,-42.82715 -2.53726,-2.18103 -5.147973,-4.20879 -7.822611,-6.24213 -12.908424,-10.47026 -22.931031,-23.80624 -31.826138,-37.27844 -0.741528,-1.11527 -0.741528,-1.11527 -1.49804,-2.25308 C 19.213031,513.97734 14.482316,503.33631 10.462089,491.8598 9.8491512,490.1131 9.8491512,490.1131 9.2238347,488.33111 3.5266937,471.22467 1.4148992,455.12922 1.5525352,437.32466 c 0.020463,-3.15292 1.12e-5,-6.30407 -0.024152,-9.45692 -0.013977,-11.5204 0.9442532,-21.66843 4.3304529,-32.79981 0.4183871,-1.92851 0.8190624,-3.86051 1.1905086,-5.79723 8.2254213,-37.84368 32.2467843,-69.22022 61.0331653,-96.35156 0.751761,-0.71145 1.50353,-1.4229 2.278078,-2.15591 6.457164,-6.05031 13.379734,-11.34771 20.579589,-16.63007 1.286638,-0.9611 2.573276,-1.92218 3.898905,-2.91238 15.981648,-11.7943 33.517518,-20.74766 51.975408,-28.78898 0.85347,-0.3727 1.70693,-0.7454 2.58625,-1.12941 10.2696,-4.43704 20.3452,-8.08734 31.34311,-10.70356 3.12407,-0.81153 5.98638,-1.70129 8.99327,-2.78854 5.76846,-2.04284 11.62825,-3.4398 17.63433,-4.75154 1.15364,-0.25247 2.30727,-0.50494 3.49587,-0.76506 11.4147,-2.41509 22.88591,-3.99981 34.4998,-5.33029 2.71828,-0.3243 5.42002,-0.69739 8.12643,-1.09616 18.48644,-2.48618 37.23028,-1.8267 55.8644,-1.61442 0,-0.77491 0,-1.54984 0,-2.34824 -0.87577,-0.26789 -1.75153,-0.53579 -2.65383,-0.8118 -4.53374,-1.88495 -8.18218,-4.47537 -12.02905,-7.33369 -1.16034,-0.85561 -1.16034,-0.85561 -2.34412,-1.72851 -31.15267,-23.22103 -31.15267,-23.22103 -33.1329,-36.72406 0.11913,-5.48726 2.63066,-8.18235 6.6569,-12.02559 5.39897,-4.57735 11.10277,-8.78652 16.83571,-12.99792 6.03105,-4.47111 11.03953,-9.07838 15.87339,-14.67655 12.69795,-14.69592 12.69795,-14.69592 22.22273,-15.85068 5.77369,-0.50871 11.55215,-0.80429 17.34478,-1.04685 2.0174,-0.0864 4.03427,-0.18381 6.05049,-0.29124 13.51582,-0.67872 23.71054,-0.68587 35.01879,7.20871 0.47144,-1.01708 0.47144,-1.01708 0.9524,-2.05471 4.46854,-7.43692 13.23454,-13.2117 21.81599,-15.997446 11.70851,-2.203708 25.51116,-2.872565 35.99289,3.049966 2.17152,1.08465 2.17152,1.08465 4.68761,0.82556 3.71259,-1.5615 5.40718,-3.844494 7.90198,-6.810836 1.00834,-1.177519 2.0167,-2.355037 3.05562,-3.568237 1.00836,-1.195681 2.01672,-2.391361 3.05562,-3.623273 9.1554,-10.707706 18.99891,-20.680937 29.20703,-30.527227 0.74256,-0.720247 1.48512,-1.440492 2.25018,-2.182564 10.38221,-10.023184 21.20056,-18.964131 33.3062,-27.170539 0.68547,-0.470326 1.37095,-0.940651 2.07719,-1.425231 10.59209,-7.22156 21.60015,-13.341055 33.4792,-18.5348784 1.39794,-0.6235699 2.79589,-1.2471398 4.2362,-1.8896059 17.80272,-6.70469603 40.90989,-6.53988501 59.25734,-1.6327664 z"
     fill="#020202"
     id="path2"
     style="stroke-width:1.22106;fill:#294221;fill-opacity:1" />
  <path
     d="m 296.61183,231.34089 c 3.45535,0.0107 6.90959,0.003 10.36482,-0.024 29.83805,-0.23008 58.41115,2.31444 87.46266,8.76666 1.62385,0.33904 3.24769,0.67806 4.92075,1.02736 5.7288,1.33815 11.3032,3.144 16.89213,4.90604 4.97187,1.56334 9.95408,2.95949 15.01338,4.26681 34.04663,9.59932 66.84745,26.62039 93.45455,48.40968 2.81116,2.45242 2.81116,2.45242 5.59536,3.61869 0.21318,4.63215 0.0198,8.50436 -1.26987,12.98875 -3.58697,14.22736 -0.59492,27.36633 3.80962,41.02096 0.28809,0.94443 0.5762,1.88887 0.87303,2.86192 2.44036,6.99472 7.45346,14.22976 13.09554,19.44644 0.37146,7.10071 -0.57435,13.53586 -2.1429,20.47379 -0.2259,1.01594 -0.4518,2.03189 -0.68455,3.07863 -1.55861,6.79551 -3.34655,13.50874 -5.42671,20.1837 -0.24011,0.78163 -0.48024,1.56327 -0.72763,2.3686 -1.86423,5.72078 -4.54648,10.83634 -7.52653,16.12385 -0.77742,1.46682 -1.54968,2.93599 -2.31652,4.40756 -7.93347,15.05645 -16.47211,29.673 -28.16038,42.55741 -0.9707,1.11244 -1.94141,2.22487 -2.94154,3.37102 -13.4264,15.2223 -28.45097,29.28039 -45.31355,41.24569 -1.88575,1.38034 -1.88575,1.38034 -3.80961,2.78855 -10.65777,7.76022 -21.77719,14.85113 -33.01663,21.86806 -0.36013,-0.67805 -0.72026,-1.35612 -1.09131,-2.05472 -0.92319,-1.68381 -1.88538,-3.35016 -2.89688,-4.99003 -0.46489,-0.77492 -0.92979,-1.54984 -1.40877,-2.34825 -0.47798,-0.77491 -0.95597,-1.54984 -1.44845,-2.34825 -0.77382,-2.34825 -0.77382,-2.34825 -0.10913,-4.65521 2.56741,-3.27187 5.82688,-5.41113 9.33553,-7.74646 7.41612,-5.08886 14.195,-10.57529 20.91319,-16.42857 3.37309,-2.8711 3.37309,-2.8711 6.64697,-5.22394 3.31419,-2.52558 5.80104,-5.18191 8.47242,-8.28767 5.76941,-6.69432 5.76941,-6.69432 8.73036,-9.81952 19.76298,-21.06084 33.62781,-46.63146 41.10711,-73.55017 0.58039,-2.05708 1.22186,-4.09922 1.87008,-6.13892 2.60067,-9.12848 2.96815,-17.98217 3.05563,-27.39011 0.0177,-1.21762 0.0354,-2.43525 0.0537,-3.68978 -0.0797,-12.08885 -3.18056,-23.02439 -8.06969,-34.17573 -0.92078,-2.13859 -0.92078,-2.13859 -1.86016,-4.3204 -8.91763,-17.78071 -24.45786,-28.38068 -43.84186,-34.96001 -7.41178,-2.35674 -13.86318,-3.87236 -21.68049,-3.13482 0.64168,0.73558 1.28336,1.47114 1.94449,2.229 0.82502,0.95958 1.65003,1.91914 2.50006,2.90779 0.82502,0.95353 1.65003,1.90704 2.50006,2.88946 1.94449,2.54087 1.94449,2.54087 1.94449,4.88912 -0.70809,0.0171 -1.41617,0.0343 -2.1457,0.0519 -13.47473,0.36218 -26.29867,1.07758 -39.47233,3.8374 -3.65496,0.72007 -7.12355,1.13872 -10.84352,1.39427 -8.80199,0.67595 -16.91428,3.25138 -24.92121,6.62739 -3.45677,1.32567 -7.00184,2.34213 -10.5558,3.42605 -38.40951,12.62953 -70.77473,35.73785 -88.49412,70.00715 -3.6371,7.35659 -5.95837,14.76517 -7.69858,22.67528 -0.31537,1.06334 -0.31537,1.06334 -0.63711,2.14816 -2.40762,8.54348 -2.46635,17.09922 -2.45821,25.88405 3.4e-4,0.82107 6.7e-4,1.64214 10e-4,2.4881 0.10991,23.12372 1.96566,60.01782 20.87249,77.4991 0.61356,4.08449 0.25294,5.54321 -2.381,8.95269 -0.8905,0.92023 -1.781,1.84045 -2.69848,2.78856 -6.82743,9.46896 -7.62737,20.59901 -6.34935,31.70134 2.03578,6.63143 5.99725,11.97739 10.15897,17.61187 0,0.77492 0,1.54984 0,2.34825 -19.12012,4.43943 -37.84693,5.21639 -57.46165,5.28355 -1.18162,0.0117 -2.36324,0.0235 -3.58067,0.0355 -23.10537,0.18782 -44.18837,-3.49702 -66.02289,-10.41232 -1.63707,-0.517 -3.27822,-1.02311 -4.92323,-1.5181 -46.423016,-14.01297 -83.902261,-46.57238 -105.842612,-86.39301 -5.93558,-11.24933 -9.473617,-22.7763 -12.333492,-34.9752 -0.207891,-0.83564 -0.415782,-1.6713 -0.629979,-2.53227 -5.19942,-21.33032 -5.654785,-45.34866 -0.639887,-66.74104 0.340484,-1.49536 0.680968,-2.99072 1.031762,-4.53139 5.827162,-24.11434 17.806048,-47.79091 34.524616,-67.09018 1.12703,-1.39623 1.12703,-1.39623 2.276837,-2.82065 29.60588,-35.46006 80.887685,-73.15008 130.409775,-79.89089 3.61845,-0.73885 6.92556,-1.97577 10.3763,-3.20534 5.82014,-1.89612 11.81921,-3.15962 17.81384,-4.49068 1.2449,-0.29059 2.48978,-0.58119 3.77241,-0.88059 24.60566,-5.49791 48.79017,-6.76984 74.0391,-6.68787 z"
     fill="#fbfbfb"
     id="path3"
     style="stroke-width:1.22106" />
  <path
     d="m 597.61863,230.69048 c 0.0186,0.90499 0.037,1.80998 0.0561,2.74239 0.0953,4.14984 0.21781,8.29863 0.34073,12.44784 0.0429,2.1352 0.0429,2.1352 0.0868,4.31353 0.33041,10.24811 1.198,19.67561 8.40545,27.90149 0.94288,1.10336 0.94288,1.10336 1.90481,2.22901 1.87663,2.06278 1.87663,2.06278 4.04771,3.90763 1.66671,1.64194 1.66671,1.64194 1.66671,3.99019 -1.25718,0.38746 -2.51434,0.77492 -3.80961,1.17412 -0.62859,1.16239 -0.62859,1.16239 -1.26988,2.34825 8.51806,2.62527 15.83278,1.55464 23.69104,-1.95381 4.34693,-2.29094 8.3033,-5.02414 12.34651,-7.74189 5.42635,-3.33483 11.28494,-5.6363 17.29703,-7.91616 0.97726,-0.40108 1.95451,-0.80217 2.96138,-1.2154 16.25284,-5.43451 39.07361,-7.91351 55.45267,-2.30698 6.27239,3.20821 11.66341,7.65173 17.1879,11.8559 11.2852,8.05311 22.11299,9.37078 36.14667,8.10422 11.64497,-2.9692 18.89775,-10.94571 25.39742,-19.96012 6.99347,-1.31418 13.89834,-1.28321 20.25841,1.84374 2.29693,1.49876 4.58393,3.01061 6.86028,4.53598 5.19693,2.84615 10.20957,2.97895 16.05692,1.83915 1.25717,-0.77491 2.51433,-1.54984 3.8096,-2.34825 1.67624,0 3.35247,0 5.07949,0 2.8342,5.24103 2.09393,12.41491 0.49108,17.95585 -3.8258,8.05641 -11.09694,12.77502 -19.77724,15.94699 -13.7602,3.63817 -27.23965,1.11697 -40.39776,-3.37561 -1.25718,-0.77491 -2.51435,-1.54984 -3.80962,-2.34825 -3.30966,0.31386 -5.75809,0.86521 -8.65968,2.38122 -5.65568,2.33068 -12.23416,1.5331 -18.32507,1.50808 -1.52001,-0.001 -3.04001,-0.003 -4.60607,-0.004 -11.52751,-0.11238 -22.77066,-1.02902 -34.16343,-2.63117 -14.23008,-1.9703 -25.18062,-1.98559 -38.37515,3.44297 -14.47627,5.44968 -35.04901,6.26306 -49.9218,1.61442 -8.70959,-3.64513 -16.43141,-8.86938 -23.7307,-14.52978 4.90054,11.03212 13.77079,18.40467 25.45198,23.42285 13.85614,4.41049 30.4297,3.77904 44.39091,0.0597 2.11477,-0.39905 4.23031,-0.79491 6.34935,-1.17412 0.33557,0.85211 0.67115,1.70422 1.01689,2.58215 2.57798,5.56691 6.51782,10.19198 10.41195,15.02971 0.6384,0.83093 1.27681,1.66184 1.93457,2.51795 8.01106,9.53139 21.02412,15.94944 33.62181,18.61629 16.74187,1.56432 30.47239,-1.79581 43.76094,-11.35599 9.38229,-7.95419 15.03099,-17.75917 19.7326,-28.56424 1.02344,0.25044 1.02344,0.25044 2.06757,0.50595 7.33307,1.66746 14.13051,2.16856 21.66314,2.06245 1.55305,-10e-4 1.55305,-10e-4 3.13747,-0.002 5.56959,-0.0374 10.82588,-0.3685 16.30743,-1.39197 11.60973,16.50011 21.17463,31.43874 21.5878,51.66146 0.0789,1.62513 0.15836,3.25026 0.2381,4.87536 0.9356,25.14975 -7.4392,48.82503 -25.63552,67.92033 -2.47652,2.04522 -5.02098,3.95488 -7.61922,5.87062 -0.0769,-1.27438 -0.15388,-2.54877 -0.23315,-3.86177 -0.10723,-1.69698 -0.21474,-3.39396 -0.32242,-5.09092 -0.05,-0.83698 -0.0999,-1.67395 -0.15129,-2.53629 -0.31297,-4.85252 -0.86105,-9.55449 -1.83288,-14.34175 -1.25717,0 -2.51435,0 -3.80962,0 -0.23572,0.94444 -0.23572,0.94444 -0.4762,1.90796 -4.09446,14.38582 -11.79663,28.00484 -22.38147,39.18639 -0.62368,0.71589 -1.24735,1.43179 -1.88992,2.16937 -12.29017,13.93637 -28.50022,23.93883 -46.36516,30.7061 -0.85531,0.32465 -1.71062,0.6493 -2.59183,0.98378 -2.6994,1.01345 -5.40786,2.00145 -8.12272,2.97889 -0.84088,0.30894 -1.68174,0.61789 -2.5481,0.9362 -5.07287,1.76729 -9.26399,2.47061 -14.67452,2.14587 0.11048,-1.23503 0.11048,-1.23503 0.22322,-2.49501 0.42804,-8.32237 -0.60577,-13.47653 -6.57257,-19.81334 -5.29843,-5.12003 -10.5381,-8.10083 -17.77819,-10.56712 -2.31546,-0.82184 -2.31546,-0.82184 -4.67769,-1.66028 -3.58739,-1.24694 -7.18383,-2.38012 -10.84847,-3.41689 -25.31865,-7.19018 -44.66499,-18.56784 -59.39621,-39.53954 -1.95551,-3.45044 -3.64884,-6.90406 -5.07949,-10.56713 -0.83811,0 -1.67623,0 -2.53974,0 -0.0342,3.08217 -0.0594,6.164 -0.0794,9.24624 -0.016,1.31449 -0.016,1.31449 -0.0322,2.65554 -0.15111,4.76898 -0.15111,4.76898 1.38148,9.23247 0.0511,2.73921 0.0549,5.4797 0,8.21886 -11.74556,-1.42586 -21.57707,-10.82556 -29.03342,-18.80892 -5.34699,-6.89605 -9.12408,-14.5669 -12.87232,-22.28542 -0.67115,-1.32736 -1.34229,-2.65471 -2.03378,-4.0223 -4.78195,-11.30048 -4.62567,-22.2493 -4.47431,-34.21012 0.0127,-1.76194 0.0244,-3.52389 0.0348,-5.28585 0.0277,-4.28005 0.0715,-8.55982 0.12402,-12.83969 -4.89112,2.56882 -7.48603,4.54497 -10.39708,9.02608 -1.88,2.87569 -1.88,2.87569 -3.57151,5.06341 -0.83812,0 -1.67622,0 -2.53974,0 -9.69002,-16.68303 -11.45805,-33.16312 -6.34935,-51.66146 3.17426,-8.88795 7.8544,-16.92306 13.10608,-24.88307 2.48248,-3.82401 4.06187,-7.07566 4.67211,-11.51477 -2.51435,0 -5.02869,0 -7.61922,0 -1.04279,-20.56877 -1.04279,-20.56877 5.07948,-27.00486 6.39717,-5.29222 14.46809,-8.59898 22.064,-12.18154 1.33759,-0.63114 1.33759,-0.63114 2.7022,-1.27502 6.51468,-2.98118 6.51468,-2.98118 10.79018,-2.98118 z"
     fill="#fafafa"
     id="path4"
     style="stroke-width:1.22106" />
  <path
     d="m 46.494731,427.94333 c 4.158187,2.56311 4.868261,3.85043 6.904914,7.92534 1.843343,3.56831 3.6748,6.94804 6.111257,10.2002 2.22227,3.00869 2.22227,3.00869 3.492146,6.53107 1.248878,1.19321 2.523697,2.36326 3.809608,3.52237 5.310566,6.20665 10.517622,12.50541 14.92098,19.29966 2.558315,3.93424 5.593934,6.88449 9.206564,10.05343 l 2.539742,3.08208 c 2.373704,2.91234 2.373704,2.91234 5.714417,4.54974 3.174681,1.76118 3.174681,1.76118 5.317591,4.40296 5.03792,5.53933 11.98435,10.32249 19.4449,12.62184 v 2.34824 l 2.42069,0.64668 c 5.1801,1.40657 10.27605,2.82567 15.27812,4.71026 17.86677,6.26493 40.65517,6.4056 58.33841,-0.40475 21.62044,-9.45586 34.57061,-25.71641 42.48548,-46.13253 2.16275,-5.7892 4.09915,-11.63829 5.92462,-17.52586 h 2.53975 l 1.26987,-9.393 h 1.26987 l 0.0159,2.29924 c 0.2837,46.96897 0.2837,46.96897 21.57192,88.10832 0.61355,4.08449 0.25293,5.54321 -2.38101,8.95269 l -2.69848,2.78855 c -6.82741,9.46897 -7.62736,20.59902 -6.34934,31.70135 2.03578,6.63143 5.99724,11.97738 10.15896,17.61186 v 2.34825 c -19.12011,4.43943 -37.84692,5.2164 -57.46165,5.28355 l -3.58066,0.0356 c -23.10539,0.18783 -44.18838,-3.49702 -66.02289,-10.41232 -1.63708,-0.51699 -3.27822,-1.02311 -4.92323,-1.5181 C 95.402877,577.57093 57.88681,545.00819 35.969616,505.18246 30.184643,494.23113 23.637052,480.22141 23.637052,467.86359 l 2.400854,-2.10516 c 3.053073,-2.95357 3.754817,-4.91996 4.9009,-8.82887 3.43843,-10.32596 9.081809,-20.00722 15.555925,-28.98618 z"
     fill="#c5c4c5"
     id="path5"
     sodipodi:nodetypes="cccccccccccccccccccccccccccccccccccc"
     style="fill:#ffffff;stroke-width:1.22106" />
  <path
     d="m 820.31725,139.62248 c 3.19873,2.83698 4.50749,5.34527 4.85627,9.45004 -0.0294,1.06939 -0.0589,2.13879 -0.0892,3.24059 -0.0197,1.17676 -0.0393,2.35352 -0.0595,3.56595 -0.066,2.46443 -0.13215,4.92887 -0.19841,7.3933 -0.0197,1.17828 -0.0392,2.35656 -0.0595,3.57054 -0.0295,1.07072 -0.0589,2.14143 -0.0893,3.2446 0.27417,3.39452 1.35732,5.82515 2.78777,8.94152 0.3373,4.00395 0.3373,4.00395 0.31747,8.29225 0.0101,2.12725 0.0101,2.12725 0.0198,4.29748 -0.31346,3.57598 -0.84201,5.55036 -2.87705,8.5445 -4.01534,-0.76783 -7.19163,-2.09627 -10.7939,-3.88928 -51.69317,-24.2482 -124.64351,-9.98709 -177.0676,5.0313 -3.83904,1.19073 -7.6162,2.48704 -11.40156,3.81447 -3.46079,1.19545 -6.94838,2.31228 -10.43954,3.42921 -18.833,6.03973 -37.29469,13.04774 -54.4206,22.56807 -0.80393,0.4445 -1.60788,0.889 -2.43619,1.34697 -2.21305,1.23983 -4.408,2.50718 -6.60171,3.77605 -3.67073,1.49519 -3.67073,1.49519 -6.52793,0.77511 -3.74952,-2.74713 -5.87621,-5.68952 -7.30176,-9.84705 -0.15022,-3.85436 0.007,-7.65367 0.15873,-11.50733 -0.16023,-3.79201 -0.8178,-5.79849 -2.69847,-9.11322 -3.48424,-6.29243 -3.8535,-12.37095 -2.53974,-19.29966 4.14784,-8.59132 15.88186,-13.81547 24.12754,-18.78599 0.99527,-0.61146 1.99052,-1.22292 3.01594,-1.85291 5.15435,-3.09027 10.35114,-5.34352 16.03212,-7.54008 2.15361,-1.14128 4.30677,-2.28329 6.45569,-3.43208 24.71385,-12.84156 52.44438,-21.04725 79.89552,-27.09515 1.84648,-0.43362 1.84648,-0.43362 3.73025,-0.87601 8.4608,-1.92577 16.94768,-3.34401 25.55615,-4.55431 1.019,-0.14454 2.03799,-0.28908 3.08787,-0.438 40.17994,-5.43592 91.22254,-6.65443 125.56095,16.94912 z"
     fill="#f7f7f7"
     id="path6"
     style="stroke-width:1.22106" />
  <path
     d="m 531.58535,126.19343 c 1.32559,39.90141 1.32559,39.90141 -7.61923,48.72616 -0.89049,0.66595 -1.78099,1.33189 -2.69846,2.01801 -4.26592,3.74706 -4.80882,8.04222 -5.34736,13.30522 -0.0891,7.9384 0.12449,13.90729 4.31062,20.98747 1.71077,4.32529 1.68986,8.50301 1.83041,13.07588 0.31687,9.10144 1.32508,15.35098 8.65098,21.94145 0.70717,0.67806 1.41433,1.35611 2.14292,2.05472 -0.52549,3.40809 -1.92346,5.88226 -3.80962,8.80594 -3.47584,6.14806 -3.56363,12.55025 -3.80961,19.37303 -0.83812,0 -1.67623,0 -2.53974,0 0,-0.77491 0,-1.54984 0,-2.34824 -0.91832,-0.31179 -1.83665,-0.62357 -2.7828,-0.94481 -3.59642,-1.41519 -6.58167,-3.07864 -9.83654,-5.07258 -11.168,-6.67172 -22.67522,-12.70372 -34.52461,-18.2723 -1.46671,-0.69471 -2.93341,-1.38941 -4.44455,-2.10517 -4.14313,-1.87555 -4.14313,-1.87555 -8.25416,-2.65096 -5.81689,-1.36557 -9.69927,-2.90107 -13.20467,-7.59339 -4.26225,-6.80526 -7.84044,-13.91459 -11.48031,-21.01613 -2.58128,-4.81146 -5.57339,-9.31549 -8.72849,-13.81947 -4.31065,-6.19821 -8.37833,-12.43496 -12.14315,-18.93274 1.12132,-0.0877 2.24262,-0.17558 3.39791,-0.26601 11.03515,-1.11786 19.08659,-3.48663 28.34886,-9.12699 1.7679,-1.01708 1.7679,-1.01708 3.57151,-2.05472 7.92841,-7.54005 12.98534,-17.21607 13.73049,-27.66529 0.0949,-1.25471 0.18987,-2.50942 0.28769,-3.80215 0.0622,-0.94898 0.12441,-1.89796 0.1885,-2.87569 5.73468,-1.29783 11.47021,-2.5924 17.20651,-3.88412 1.94596,-0.43866 3.89169,-0.87818 5.83718,-1.3186 30.5764,-6.92011 30.5764,-6.92011 41.71972,-6.53852 z"
     fill="#f9f9f9"
     id="path7"
     style="stroke-width:1.22106" />
  <path
     d="m 337.91767,124.83585 c 3.52279,-0.18759 7.04119,-0.30623 10.56819,-0.40361 1.13696,-0.0507 2.27392,-0.10135 3.44533,-0.15364 5.99293,-0.0537 9.89392,0.41716 14.69498,3.89158 2.72092,2.50357 3.61079,3.63173 4.60824,7.1273 -0.0426,1.08823 -0.0851,2.17644 -0.12897,3.29764 0.52804,15.17263 8.34238,27.07289 20.11207,37.36128 2.16514,2.10586 3.70636,4.25465 5.35479,6.728 0.64874,0.96969 1.29748,1.93939 1.96588,2.93846 0.69028,1.0448 1.38055,2.0896 2.09175,3.16606 0.71565,1.07734 1.4313,2.15469 2.16864,3.26467 5.44442,8.2246 10.82744,16.48339 16.16512,24.76755 0.7225,1.11518 1.44501,2.23036 2.18941,3.37933 0.66071,1.03251 1.32143,2.06501 2.00216,3.1288 0.8798,1.36941 0.8798,1.36941 1.77738,2.76648 1.25344,2.24648 1.25344,2.24648 1.25344,4.59473 -8.15464,-0.60319 -15.57647,-2.47087 -23.38347,-4.71026 -4.41675,-1.24862 -4.41675,-1.24862 -8.5518,-1.55021 -6.95869,-0.76837 -10.89517,-2.34926 -15.26324,-7.42083 -3.39738,-4.31651 -6.51073,-8.78919 -9.57798,-13.31037 -2.01386,-2.90407 -4.22898,-5.61212 -6.55831,-8.30543 -0.66788,-0.77947 -1.33575,-1.55894 -2.02386,-2.36202 -0.96253,-1.11924 -0.96253,-1.11924 -1.94448,-2.26111 -1.43708,-1.70619 -2.86593,-3.41834 -4.28582,-5.13678 -0.61222,-0.73558 -1.22443,-1.47115 -1.85521,-2.22901 -1.4782,-2.02719 -1.4782,-2.02719 -2.74808,-5.54957 -2.82987,-2.91117 -2.82987,-2.91117 -6.34935,-5.87062 -0.62367,-0.54184 -1.24735,-1.08368 -1.88992,-1.64193 -3.90145,-3.22512 -6.82742,-4.97441 -12.07865,-5.40282 1.37753,7.61555 3.80414,13.55083 8.17479,20.10688 0.82348,1.27051 0.82348,1.27051 1.66361,2.56668 4.58073,6.93374 9.65271,13.49504 15.0453,19.90737 4.32333,5.204 4.32333,5.204 4.32333,9.08053 -12.8966,0.73006 -21.40958,-5.38182 -31.74677,-11.74123 -1.25718,-0.7613 -2.51435,-1.5226 -3.80962,-2.30697 -16.44965,-10.20929 -32.21358,-21.82096 -45.71535,-35.26501 1.62812,-4.51607 4.55677,-6.00237 8.57163,-8.65915 6.44206,-4.42339 12.34507,-9.13331 18.01629,-14.38303 0.70174,-0.64807 1.40347,-1.29614 2.12647,-1.96385 3.67003,-3.47207 6.68108,-6.88369 9.4611,-11.0249 2.92759,-3.73765 5.28,-4.71911 10.15897,-5.65047 3.98857,-0.37063 7.97248,-0.53849 11.97201,-0.77052 z"
     fill="#f9f9fa"
     id="path8"
     style="stroke-width:1.22106" />
  <path
     d="m 429.34587,113.08544 c 5.66379,3.03019 9.26616,7.16593 12.94674,12.09898 1.73066,2.39022 1.73066,2.39022 4.60824,4.8983 3.35486,3.1019 3.63381,6.22226 3.73024,10.42035 -0.12277,7.76963 -2.64348,14.62809 -8.39801,20.46003 -6.71269,5.25854 -14.44465,8.452 -23.2942,7.91616 -10.71199,-1.53541 -18.5937,-4.34858 -25.38252,-12.34664 -6.15899,-8.35652 -6.56276,-15.02449 -5.04972,-24.81713 1.83668,-8.36519 6.73712,-12.54897 13.95369,-17.24495 7.37824,-4.11531 18.91599,-3.8606 26.88554,-1.3851 z"
     fill="#fafafa"
     id="path11"
     style="stroke-width:1.22106" />
  <path
     d="m 459.20272,467.86354 c -2.33633,15.26767 -26.98242,34.04783 -39.366,43.44259 -1.23425,0.96866 -2.4685,1.93731 -3.74016,2.93532 -17.26231,13.50243 -17.26231,13.50243 -22.76839,13.50243 -5.01192,-1.4829 -9.51641,-3.54424 -14.12731,-5.87063 1.51101,-9.77958 5.55034,-17.9984 10.39707,-26.71132 0.56525,-1.04083 1.13051,-2.08165 1.7129,-3.15402 4.95975,-8.66511 10.79914,-15.61489 20.10308,-20.53485 5.82789,-1.59336 11.42704,-2.21594 17.47065,-2.65554 1.75485,-0.14161 1.75485,-0.14161 3.54516,-0.28608 8.94281,-0.67861 17.80009,-0.94495 26.773,-0.6679 z"
     fill="#969696"
     id="path12"
     style="fill:#ffffff;stroke-width:1.22106" />
  <path
     d="m 724.68507,350.89144 c 1.67214,0.48583 1.67214,0.48583 3.37806,0.98149 2.89193,0.92645 2.89193,0.92645 5.43167,2.10057 4.49138,0.32785 8.98264,0.52514 13.48245,0.72925 3.86453,0.40022 6.12014,0.92532 9.37522,2.79313 -12.23225,3.418 -25.57086,1.75155 -36.82624,-3.52238 -1.72559,-1.13305 -3.43016,-2.29607 -5.07949,-3.52237 4.46739,-1.37684 5.85154,-0.86193 10.23833,0.44031 z"
     fill="#0a0b0a"
     id="path20"
     style="stroke-width:1.22106" />
  <path
     d="m 487.13988,296.44143 c 4.82159,1.92433 8.63168,4.83212 12.61933,7.92533 l 1.97178,1.48601 c 4.61065,3.55341 8.56041,7.20773 12.07618,11.72289 l -1.26988,3.52238 -3.33341,-3.449 c -6.78717,-6.34039 -15.15276,-10.7103 -23.33388,-15.337 l 2.53975,-2.34824 z"
     fill="#B9B9B8"
     id="path21"
     style="fill:#ffffff;stroke-width:1.22106"
     sodipodi:nodetypes="ccccccccc" />
  <path
     d="m 860.48187,1009.1348 c -4.19057,0.7749 -8.38114,1.5498 -12.6987,2.3482 0,0.3875 0,0.7749 0,1.1741 -6.28586,-0.3874 -12.57172,-0.7749 -19.04806,-1.1741 0,-0.3875 0,-0.7749 0,-1.1741 4.33732,-0.4291 8.67643,-0.84 13.01617,-1.2475 1.84402,-0.1828 1.84402,-0.1828 3.72529,-0.3692 1.18679,-0.1098 2.37357,-0.2195 3.59632,-0.3325 1.09061,-0.1046 2.18122,-0.2091 3.30488,-0.3168 3.02463,-0.082 3.02463,-0.082 8.1041,1.0919 z"
     fill="#b5b5b4"
     id="path27"
     style="stroke-width:1.22106" />
  <path
     d="m 739.84415,355.14763 c 1.79844,-0.0639 3.59765,-0.10919 5.39696,-0.14676 1.0018,-0.0272 2.00361,-0.0545 3.03578,-0.0825 3.25937,0.24946 5.27121,1.067 8.07558,2.57756 -4.76709,1.41357 -9.31091,1.2901 -14.28604,1.24751 -1.60421,-0.0106 -3.20841,-0.0212 -4.86122,-0.0321 -1.22444,-0.0136 -2.44887,-0.0272 -3.71041,-0.0413 0,-0.38746 0,-0.77491 0,-1.17412 2.09529,-0.38746 4.19057,-0.77492 6.34935,-1.17413 0,-0.38746 0,-0.77491 0,-1.17412 z"
     fill="#313330"
     id="path29"
     style="stroke-width:1.22106" />
  <path
     d="m 718.25635,349.27702 c 4.04771,1.02735 4.04771,1.02735 7.61923,2.34824 0,1.16238 0,2.32477 0,3.52237 1.67623,0.38747 3.35246,0.77493 5.07948,1.17412 -1.25717,0.5812 -1.25717,0.5812 -2.53974,1.17413 -3.30365,-1.16953 -3.30365,-1.16953 -7.14302,-2.86192 -1.27354,-0.55547 -2.54709,-1.11093 -3.85922,-1.68323 -0.97889,-0.4374 -1.95779,-0.8748 -2.96634,-1.32547 1.25718,-0.77492 2.51434,-1.54985 3.80961,-2.34824 z"
     fill="#272726"
     id="path30"
     style="stroke-width:1.22106" />
  <path
     d="m 799.52809,270.61069 c 1.67622,0 3.35245,0 5.07947,0 0,0.77493 0,1.54986 0,2.34825 -0.99526,0.53276 -1.99052,1.06552 -3.01594,1.61442 -3.46873,1.61231 -3.46873,1.61231 -4.68264,4.40298 -0.39288,0.72649 -0.78575,1.45296 -1.19051,2.20147 -2.61415,0.72466 -2.61415,0.72466 -5.07949,1.17413 1.24163,-1.73782 2.48546,-3.47429 3.73025,-5.21018 0.69243,-0.96713 1.38485,-1.93428 2.09827,-2.93073 1.79071,-2.42621 1.79071,-2.42621 3.06059,-3.60034 z"
     fill="#d6d5d3"
     id="path31"
     style="stroke-width:1.22106" />
  <path
     d="m 303.00862,144.97942 c 0,3.52237 0,3.52237 -2.32148,6.13663 -1.52236,1.39395 -1.52236,1.39395 -3.07547,2.81607 -1.00181,0.93535 -2.00362,1.87071 -3.03579,2.8344 -2.86842,2.20427 -4.44143,3.02953 -8.07559,3.47652 5.50278,-5.08788 11.00555,-10.17575 16.50833,-15.26362 z"
     fill="#d1d1cf"
     id="path33"
     style="stroke-width:1.22106" />
  <path
     d="m 209.03818,223.64573 c -0.41905,1.16239 -0.83811,2.32477 -1.26987,3.52237 -8.17161,0.58119 -8.17161,0.58119 -16.50832,1.17413 5.68545,-3.50452 10.96945,-4.6965 17.77819,-4.6965 z"
     fill="#3d3d3f"
     id="path35"
     style="stroke-width:1.22106" />
  <path
     d="m 248.40417,889.37409 c 0.94744,2.03638 0.94744,2.03638 1.26988,4.6965 -2.09827,2.51336 -2.09827,2.51336 -5.00012,4.99003 -0.95434,0.82941 -1.90867,1.65882 -2.89193,2.51336 -0.74808,0.62357 -1.49617,1.24714 -2.26692,1.88961 -0.83811,-0.38746 -1.67623,-0.77493 -2.53974,-1.17413 0.71862,-0.73558 1.43723,-1.47114 2.17763,-2.229 1.39713,-1.43936 1.39713,-1.43936 2.82249,-2.90779 0.92815,-0.95352 1.85629,-1.90703 2.81256,-2.88944 2.38425,-2.37562 2.38425,-2.37562 3.61615,-4.88914 z"
     fill="#d5d5d4"
     id="path38"
     style="stroke-width:1.22106" />
  <path
     d="m 762.70183,352.79938 c 0.41906,0.77493 0.83812,1.54984 1.26987,2.34825 -4.41058,1.35935 -8.07723,1.25475 -12.6987,1.17412 0,-0.77491 0,-1.54984 0,-2.34825 7.14302,-2.49501 7.14302,-2.49501 11.42883,-1.17412 z"
     fill="#10120f"
     id="path39"
     style="stroke-width:1.22106" />
  <path
     d="m 925.24529,425.59508 c 0,0.77492 0,1.54984 0,2.34825 -1.25718,0 -2.51435,0 -3.80962,0 -0.31429,0.72649 -0.62858,1.45298 -0.9524,2.20148 -1.8493,2.90676 -3.33739,3.6119 -6.66683,4.84326 1.93828,-4.56178 5.71733,-9.39299 11.42885,-9.39299 z"
     fill="#302f33"
     id="path42"
     style="stroke-width:1.22106" />
  <path
     d="m 235.70546,376.28187 c 0.83812,0.77492 1.67623,1.54984 2.53974,2.34824 -4.40009,3.48716 -4.40009,3.48716 -8.88909,7.04475 -0.83811,-0.38746 -1.67623,-0.77492 -2.53974,-1.17413 2.93341,-2.71223 5.8668,-5.42445 8.88909,-8.21886 z"
     fill="#D3D5D4"
     id="path46"
     style="fill:#ffffff;stroke-width:1.22106" />
  <path
     d="m 808.41718,966.86628 c 0.83811,0.38747 1.67623,0.77493 2.53974,1.17413 -0.41906,0.77492 -0.83812,1.54984 -1.26988,2.34825 0.83812,0.38745 1.67623,0.77492 2.53974,1.17412 -2.93339,0 -5.8668,0 -8.88909,0 0,-0.77492 0,-1.54984 0,-2.34825 2.38101,-1.2475 2.38101,-1.2475 5.07949,-2.34825 z"
     fill="#a3a3a2"
     id="path47"
     style="stroke-width:1.22106" />
  <path
     d="m 301.73874,208.38212 c 2.1397,1.13755 4.25635,2.31287 6.34937,3.52238 0,0.38745 0,0.77491 0,1.17412 -2.51435,0 -5.0287,0 -7.61923,0 0,-3.52237 0,-3.52237 1.26986,-4.6965 z"
     fill="#f1eeee"
     id="path48"
     style="stroke-width:1.22106" />
</svg>
